<?xml version="1.0" encoding="UTF-8"?>
<svg width="1258px" height="167px" viewBox="0 0 1258 167" version="1.1" xmlns="http://www.w3.org/2000/svg" xmlns:xlink="http://www.w3.org/1999/xlink">
    <title>logo</title>
    <g id="Page-1" stroke="none" stroke-width="1" fill="none" fill-rule="evenodd">
        <g id="logo" fill-rule="nonzero">
            <path d="M154,120.509051 C154,96.768113 172.1443,78 196.575601,78 C210.065888,78 221.315354,83.7699266 227.420911,90.9891284 C228.936442,92.6766448 229.840565,94.8233721 229.98833,97.085142 C229.98833,101.903982 226.295965,105.237315 221.315354,105.237315 C217.777216,105.237315 216.017219,103.425721 213.767325,101.541663 C209.289339,96.853034 203.064059,94.2290555 196.575601,94.2952873 C182.722427,94.3586931 171.835847,105.907604 171.835847,120.509051 C171.835847,134.947455 182.722427,146.65941 196.584673,146.65941 C203.018903,146.692413 209.180989,144.070164 213.613099,139.413034 C215.862992,137.492744 217.786288,135.409411 221.324427,135.409411 C223.625665,135.308263 225.865717,136.165334 227.50992,137.776057 C229.154122,139.386781 230.054954,141.606638 229.997402,143.905787 C229.842778,146.072111 228.934597,148.116331 227.429984,149.684772 C221.324427,157.067017 210.192898,163 196.584673,163 C172.153373,163.018103 154,144.24999 154,120.509051 Z" id="Path" fill="#3C4C3A"></path>
            <path d="M308.324936,153.037078 C300.964835,159.515796 291.471628,163.061935 281.658091,162.999181 C258.511742,162.999181 241,144.234944 241,120.499971 C241,96.7649989 258.511742,78.0016022 281.658091,78.0016022 C291.500818,77.9128242 301.018043,81.5164132 308.324936,88.0987003 L308.324936,86.9576829 C308.324936,82.0863959 312.281634,78.1374376 317.162468,78.1374376 C322.043302,78.1374376 326,82.0863959 326,86.9576829 L326,153.843034 C326,158.714321 322.043302,162.66328 317.162468,162.66328 C312.281634,162.66328 308.324936,158.714321 308.324936,153.843034 L308.324936,153.037078 Z M308.324936,120.436581 L308.324936,119.313675 C307.689795,105.041903 297.082942,94.2927946 283.581661,94.2927946 C269.76281,94.2927946 258.838386,105.521854 258.838386,120.436581 C258.838386,135.351308 269.726516,146.580368 283.581661,146.580368 C297.436806,146.580368 308.324936,135.360364 308.324936,120.48186 L308.324936,120.436581 Z" id="Shape" fill="#3C4C3A"></path>
            <path d="M346,56.8210742 C346,51.9493294 350.029437,48 355,48 C359.970563,48 364,51.9493294 364,56.8210742 L364,154.178926 C364,159.050671 359.970563,163 355,163 C350.029437,163 346,159.050671 346,154.178926 L346,56.8210742 Z" id="Path" fill="#3C4C3A"></path>
            <path d="M98.5831288,78.2295939 C74.2519511,78.2295939 56.1662577,96.9424501 56.1662577,120.613491 C56.1440786,126.806172 57.4411921,132.932655 59.9713935,138.58578 L59.3839023,139.100565 C54.9670619,143.742177 48.8287693,146.356358 42.4189615,146.325606 C28.6535886,146.325606 17.6087523,134.304944 17.6087523,119.909049 L17.6087523,56.8073472 C17.6456785,54.462434 16.7303469,52.2025956 15.0715992,50.5434357 C13.4128515,48.8842758 11.1521955,47.9673373 8.80542131,48.0008894 C6.45864715,47.9673373 4.19799108,48.8842758 2.5392434,50.5434357 C0.880495712,52.2025956 -0.0348358789,54.462434 0.00101482269,56.8073472 L0.00101482269,120.225145 L0.00101482269,120.225145 C0.00101482269,143.896186 18.0787454,162.609042 42.4189615,162.609042 C54.024174,162.609042 63.7584528,158.301111 70.1485504,152.46689 C78.0016323,159.362714 88.1292388,163.113384 98.5831288,162.997388 C123.076996,162.997388 141,144.284531 141,120.613491 C141,96.9424501 123.076996,78.2295939 98.5831288,78.2295939 Z M98.5831288,146.686858 C84.5014145,146.686858 73.9356096,134.846822 73.9356096,120.613491 C73.9356096,106.217597 84.5014145,94.540124 98.5831288,94.540124 C112.664843,94.540124 123.230648,106.217597 123.230648,120.613491 C123.230648,134.846822 112.673881,146.686858 98.5831288,146.686858 Z" id="Shape" fill="#3C4C3A"></path>
            <path d="M380,120.509051 C380,96.768113 398.142135,78 422.570519,78 C435.106734,78 444.903487,82.9728253 450.36427,87.9637666 C452.331068,89.6669468 453.49531,92.1135784 453.575427,94.7119539 C453.584957,97.1011734 452.664495,99.400629 451.008315,101.124996 L426.271515,130.481876 C424.81629,132.364326 422.547246,133.438293 420.166686,133.371368 C415.340878,133.371368 411.812233,130.001804 411.812233,125.346007 C411.710911,123.392943 412.40446,121.481903 413.7353,120.047095 L433.183668,97.2481854 C430.462348,95.3188379 426.117306,94.3586931 422.57959,94.3586931 C408.764355,94.3586931 397.84279,105.907604 397.84279,120.509051 C397.84279,134.947455 408.601075,146.65941 422.57959,146.65941 C429.022793,146.727847 435.200524,144.100026 439.615055,139.413034 C442.182167,137.338759 443.951025,135.409411 447.325462,135.409411 C449.626426,135.308263 451.86621,136.165334 453.510217,137.776057 C455.154223,139.386781 456.054948,141.606638 455.997402,143.905787 C455.842797,146.072111 454.934724,148.116331 453.43029,149.684772 C447.325462,157.067017 436.240618,163 422.588661,163 C398.314485,163.018103 380,144.24999 380,120.509051 Z" id="Path" fill="#3C4C3A"></path>
            <path d="M471,110.239995 C471,90.1930412 484.438217,78 501.389517,78 C511.152093,78 519.30714,81.369845 524.58128,89.8669272 C529.539332,81.369845 538.182056,78 547.610483,78 C564.570814,78 578,90.1930412 578,110.239995 L578,153.884923 C578,158.75784 574.061784,162.708119 569.203747,162.708119 C564.345711,162.708119 560.407495,158.75784 560.407495,153.884923 L560.407495,110.085997 C560.407495,99.4963497 554.492151,94.3600538 546.815749,94.3600538 C539.292876,94.3600538 533.377532,99.4963497 533.377532,110.085997 L533.377532,146.855354 C533.407657,151.765813 529.476532,155.777803 524.58128,155.832548 C522.222287,155.83044 519.962786,154.878963 518.309218,153.191381 C516.655651,151.5038 515.746314,149.221255 515.785027,146.855354 L515.785027,110.085997 C515.785027,99.4963497 509.707124,94.3600538 502.193282,94.3600538 C494.67944,94.3600538 488.646691,99.4963497 488.646691,110.085997 L488.646691,153.884923 C488.749579,157.106201 487.095029,160.127952 484.329721,161.769122 C481.564413,163.410293 478.127433,163.410293 475.362126,161.769122 C472.596818,160.127952 470.942267,157.106201 471.045155,153.884923 L471,110.239995 Z" id="Path" fill="#3C4C3A"></path>
            <path d="M595,120.5 C595,96.7641168 613.142135,78 637.570519,78 C650.106734,78 659.903487,82.9717665 665.36427,87.961645 C667.333541,89.6635167 668.500978,92.1094331 668.584498,94.7083955 C668.59446,97.0989186 667.670261,99.3990902 666.008315,101.120072 L641.262444,130.443533 C639.807218,132.325582 637.538174,133.399321 635.157615,133.33241 C630.331807,133.33241 626.803162,129.963563 626.803162,125.308758 C626.699241,123.344273 627.399984,121.422059 628.744371,119.983806 L648.183668,97.2169188 C645.462348,95.2879821 641.117306,94.3280418 637.57959,94.3280418 C623.764355,94.3280418 612.84279,105.874494 612.84279,120.472832 C612.84279,134.908161 623.610146,146.617622 637.57959,146.617622 C644.022793,146.686045 650.200524,144.058783 654.615055,139.372789 C657.182167,137.298956 658.951025,135.370019 662.325462,135.370019 C664.626426,135.268892 666.86621,136.125781 668.510217,137.736161 C670.154223,139.346542 671.054948,141.565926 670.997402,143.864586 C670.865613,146.040485 669.973179,148.10122 668.475646,149.68762 C662.370817,157.068293 651.240618,163 637.634017,163 C613.323556,163 595,144.235883 595,120.5 Z" id="Path" fill="#3C4C3A"></path>
            <path d="M686,115.43702 C686,92.4630658 701.838347,78 722.004457,78 C742.170567,78 758,92.4630658 758,115.43702 L758,154.008219 C758.025067,158.924639 754.095085,162.94023 749.199794,163 C746.839773,162.997888 744.579287,162.044866 742.924999,160.354542 C741.270711,158.664218 740.360979,156.377964 740.399708,154.008219 L740.399708,114.792805 C740.399708,101.46392 732.268212,94.3866354 722.004457,94.3866354 C711.740702,94.3866354 703.600171,101.46392 703.600171,114.792805 L703.600171,154.008219 C703.600171,158.889054 699.660239,162.845751 694.800086,162.845751 C689.939933,162.845751 686,158.889054 686,154.008219 L686,115.43702 Z" id="Path" fill="#3C4C3A"></path>
            <path d="M863.673178,153.081376 L863.673178,153.876147 C863.673178,158.734414 859.716902,162.672817 854.836589,162.672817 C849.956276,162.672817 846,158.734414 846,153.876147 L846,56.7966704 C846,51.9384035 849.956276,48 854.836589,48 C859.716902,48 863.673178,51.9384035 863.673178,56.7966704 L863.673178,88.2985043 C870.983951,81.7355206 880.502243,78.1419994 890.346248,78.228394 C913.490127,78.228394 931,96.9416394 931,120.613172 C931,144.284705 913.490127,162.99899 890.346248,162.99899 C880.533018,163.068582 871.037497,159.538316 863.673178,153.081376 L863.673178,153.081376 Z M913.163518,120.568015 C913.163518,105.684121 902.27655,94.4941059 888.422884,94.4941059 C874.923044,94.4941059 864.154019,105.205452 863.673178,119.44811 L863.673178,120.568015 C863.673178,135.442877 874.605508,146.632892 888.422884,146.632892 C902.24026,146.632892 913.163518,135.451909 913.163518,120.613172 L913.163518,120.568015 Z" id="Shape" fill="#EF924D"></path>
            <path d="M944,120.5 C944,96.7641168 962.110152,78 986.495472,78 C1011.03473,78 1029,96.7641168 1029,120.5 C1029,144.235883 1011.03473,163 986.495472,163 C962.119207,163 944,144.235883 944,120.5 Z M1011.19772,120.5 C1011.19772,106.055615 1000.61234,94.3552099 986.495472,94.3552099 C972.378609,94.3552099 961.80228,106.055615 961.80228,120.5 C961.80228,134.77232 972.387664,146.635734 986.495472,146.635734 C1000.60328,146.635734 1011.19772,134.77232 1011.19772,120.5 Z" id="Shape" fill="#EF924D"></path>
            <path d="M1242.33169,15.8009413 C1225.43637,3.60140692 1201.88369,7.45092321 1189.72078,24.3998163 C1189.04032,25.3568654 1188.4116,26.349894 1187.83731,27.3746111 C1187.54551,26.2335006 1187.19661,25.1078612 1186.79194,24.0019714 C1179.2603,4.76678976 1157.73518,-4.84157272 1138.4527,2.4243399 C1119.17021,9.69025251 1109.27037,31.1399795 1116.2205,50.5942861 C1121.5645,64.8624509 1139.18257,78.3982194 1174.64403,110.180602 C1175.16329,110.533861 1175.74902,110.776937 1176.36528,110.894914 C1176.49145,110.894914 1176.6086,110.96725 1176.73477,110.985333 C1176.86078,110.994205 1176.98725,110.994205 1177.11326,110.985333 C1177.7416,111.035784 1178.37355,110.955756 1178.96969,110.750243 C1221.47838,89.3841638 1242.05233,80.9570855 1250.90192,68.5786839 C1263.05466,51.628519 1259.21843,28.0039986 1242.33169,15.8009413 Z M1157.07101,52.0500368 C1151.12314,54.2916916 1144.41509,52.7174089 1140.07524,48.0613755 C1135.73539,43.405342 1134.61854,36.5846405 1137.24556,30.7801911 C1139.87258,24.9757417 1145.72602,21.3308267 1152.07607,21.5452982 C1158.42611,21.7597697 1164.022,25.791384 1166.25404,31.7599469 C1169.3008,39.9071434 1165.18996,48.9901374 1157.07101,52.0500368 L1157.07101,52.0500368 Z M1233.09459,55.6668086 C1228.03806,62.7309113 1218.23211,64.3460719 1211.19002,59.2747643 C1204.14793,54.2034566 1202.53519,44.3652236 1207.58747,37.2980593 C1212.63976,30.2308949 1222.44473,28.6097949 1229.48987,33.676836 C1232.87645,36.1193523 1235.1551,39.8136106 1235.82294,43.9443006 C1236.49078,48.0749907 1235.4929,52.3025369 1233.04953,55.6939344 L1233.09459,55.6668086 Z" id="Shape" fill="#4FAF68"></path>
            <path d="M819.117261,146.566257 L817.09819,146.566257 C806.28174,146.566257 798.421787,139.326723 798.421787,125.254879 L798.421787,94.3963645 L817.09819,94.3963645 C821.56421,94.3618918 825.176191,90.7356017 825.210527,86.2518886 C825.210527,81.7538187 821.57851,78.1074127 817.09819,78.1074127 L798.421787,78.1074127 L798.421787,56.8141328 C798.421787,51.9462217 794.491137,48 789.642435,48 C784.793733,48 780.863083,51.9462217 780.863083,56.8141328 L780.863083,78.0350173 L775.112337,78.0350173 C770.632017,78.0350173 767,81.6814234 767,86.1794932 C767.034337,90.6632064 770.646317,94.2894965 775.112337,94.3239692 L780.863083,94.3239692 L780.863083,125.182483 C780.863083,148.376141 796.456798,162.954753 816.999039,163 L818.964028,163 C823.401291,162.899971 826.958248,159.281742 827,154.82597 C827.041023,150.370198 823.551894,146.686001 819.117261,146.502912 L819.117261,146.566257 Z" id="Path" fill="#3C4C3A"></path>
            <path d="M1121.81639,152.013058 L1121.81639,152.013058 C1117.07231,148.62631 1114.148,142.636449 1114.148,134.079506 L1114.148,115.164157 C1114.148,92.3576506 1098.27707,78 1078.07853,78 C1057.87998,78 1042,92.3576506 1042,115.164157 L1042,153.44522 C1042,158.29048 1045.94804,162.218339 1050.81819,162.218339 C1055.68834,162.218339 1059.63638,158.29048 1059.63638,153.44522 L1059.63638,114.524638 C1059.63638,101.292901 1067.7846,94.2672001 1078.07853,94.2672001 C1088.37245,94.2672001 1096.51162,101.292901 1096.51162,114.524638 L1096.51162,132.485212 C1096.51162,132.566278 1096.51162,132.647344 1096.51162,132.72841 L1096.51162,134.070499 C1096.51162,148.193959 1102.3874,159.083796 1111.66732,165.442956 L1111.66732,165.442956 C1115.3955,168.08411 1120.56034,167.286813 1123.30876,163.645864 C1126.05719,160.004915 1125.38705,154.847907 1121.79828,152.022065 L1121.81639,152.013058 Z" id="Path" fill="#EF924D"></path>
            <path d="M1188,149.5 C1188,156.955845 1181.95584,163 1174.5,163 C1167.04416,163 1161,156.955845 1161,149.5 C1161,142.044158 1167.04416,136 1174.5,136 C1178.08116,135.997599 1181.51633,137.419144 1184.04859,139.951406 C1186.58086,142.483668 1188.0024,145.918843 1188,149.5 Z" id="Path" fill="#EF924D"></path>
            <path d="M112,120.499803 C112,125.959963 108.710879,130.882481 103.666348,132.971994 C98.6218176,135.061507 92.8153118,133.906521 88.9543953,130.045605 C85.0934787,126.184688 83.9384929,120.378182 86.0280059,115.333652 C88.1175189,110.289121 93.0400368,107 98.5001973,107 C105.953863,107.004994 111.995006,113.046137 112,120.499803 L112,120.499803 Z" id="Path" fill="#EF924D"></path>
        </g>
    </g>
</svg>
